<svg id="ewNl8G97zE01" xmlns="http://www.w3.org/2000/svg" xmlns:xlink="http://www.w3.org/1999/xlink" viewBox="0 0 611.999 611.999" shape-rendering="geometricPrecision" text-rendering="geometricPrecision"><g transform="matrix(1.049158 0 0 0.840213-15.042324 48.894734)"><path d="M188.855883,531.730156v-179.280665l2.03728-66.461772l107.196224-41.513977L453.70232,403.381497L386.182388,562.395514l-165.537665-.80533-31.78884-29.860028Z" transform="matrix(1 0 0 1.139435-3.628656-28.815911)" fill="#ffac03" stroke-width="1.223998"/><path d="M216.02,611.195c5.978,3.178,12.284-3.704,8.624-9.4-19.866-30.919-38.678-82.947-8.706-149.952c49.982-111.737,80.396-169.609,80.396-169.609s16.177,67.536,60.029,127.585c42.205,57.793,65.306,130.478,28.064,191.029-3.495,5.683,2.668,12.388,8.607,9.349c46.1-23.582,97.806-70.885,103.64-165.017c2.151-28.764-1.075-69.034-17.206-119.851-20.741-64.406-46.239-94.459-60.992-107.365-4.413-3.861-11.276-.439-10.914,5.413c4.299,69.494-21.845,87.129-36.726,47.386-5.943-15.874-9.409-43.33-9.409-76.766c0-55.665-16.15-112.967-51.755-159.531-9.259-12.109-20.093-23.424-32.523-33.073-4.5-3.494-11.023.018-10.611,5.7c2.734,37.736.257,145.885-94.624,275.089-86.029,119.851-52.693,211.896-40.864,236.826c22.616,47.759,54.162,75.806,84.97,92.187Z" transform="translate(-1.873268 0.00125)" fill="#ff7203"/></g></svg>